<?xml version="1.0" encoding="UTF-8"?>
<svg id="Layer_2" data-name="Layer 2" xmlns="http://www.w3.org/2000/svg" xmlns:xlink="http://www.w3.org/1999/xlink" viewBox="0 0 67.57 67.57">
  <defs>
    <style>
      .cls-1 {
        fill: #fff;
      }

      .cls-2 {
        fill: #27aae1;
      }

      .cls-3 {
        fill: url(#linear-gradient);
      }

      .cls-4 {
        fill: #1c75bc;
      }
    </style>
    <linearGradient id="linear-gradient" x1="5.74" y1="29.7" x2="61.57" y2="29.7" gradientUnits="userSpaceOnUse">
      <stop offset="0" stop-color="#6acff6"/>
      <stop offset=".71" stop-color="#008fd1"/>
      <stop offset="1" stop-color="#00aeef"/>
    </linearGradient>
  </defs>
  <g id="Layer_1-2" data-name="Layer 1">
    <g>
      <rect class="cls-1" x="1" y="1" width="65.57" height="65.57" rx="15.07" ry="15.07"/>
      <g>
        <g>
          <path class="cls-3" d="m57.16,26.32h2.74v-6.31h-3.59l.62-7.35h-6.19l-.42,4.94c-.95-1.23-2.13-2.28-3.48-3.07l.16-1.88h-6.19l-.02.22s-.08,0-.12,0c-4.27,0-8.02,2.17-10.18,5.45-.43.65-1.22.98-1.97.77-.78-.22-1.6-.34-2.46-.34-3.81,0-7.07,2.36-8.4,5.7-.29.73-.98,1.23-1.77,1.23-5.61,0-10.16,4.55-10.16,10.16,0,1.02.15,2,.43,2.93.23.78.94,1.31,1.75,1.31h30.57l-.56,6.65h6.19l.56-6.65h3.74l-.56,6.65h6.19l.56-6.65h4.75c.8,0,1.52-.52,1.74-1.29.3-1.04.46-2.14.46-3.27,0-3.71-1.72-7.02-4.41-9.22Z"/>
          <g>
            <path class="cls-1" d="m59.69,26.53v-5.88h-3.61l.62-7.35h-5.76l-.62,7.35h-4.17l.62-7.35h-5.76l-.62,7.35h-5.21v5.88h4.71l-.61,7.21h-4.1v5.88h3.61l-.62,7.35h5.76l.62-7.35h4.17l-.62,7.35h5.76l.62-7.35h5.21v-5.88h-4.71l.61-7.21h4.1Zm-10.47,7.21h-4.17l.61-7.21h4.17l-.61,7.21Z"/>
            <path class="cls-2" d="m54.05,47.18h-6.19l.62-7.35h-3.74l-.62,7.35h-6.19l.62-7.35h-3.59v-6.31h4.12l.57-6.78h-4.69v-6.31h5.23l.62-7.35h6.19l-.62,7.35h3.74l.62-7.35h6.19l-.62,7.35h3.59v6.31h-4.12l-.57,6.78h4.69v6.31h-5.23l-.62,7.35Zm-5.72-.43h5.33l.62-7.35h5.19v-5.45h-4.73l.65-7.63h4.09v-5.45h-3.63l.62-7.35h-5.33l-.62,7.35h-4.6l.62-7.35h-5.33l-.62,7.35h-5.19v5.45h4.73l-.65,7.63h-4.09v5.45h3.63l-.62,7.35h5.33l.62-7.35h4.6l-.62,7.35Zm1.08-12.8h-4.6l.65-7.63h4.6l-.65,7.63Zm-4.14-.43h3.74l.57-6.78h-3.74l-.57,6.78Z"/>
          </g>
        </g>
        <g>
          <path class="cls-4" d="m6.56,54.74v-11.73h.77v5.46h7.47v-5.46h.77v11.73h-.77v-5.55h-7.47v5.55h-.77Z"/>
          <path class="cls-4" d="m19.5,54.91c-.6,0-1.13-.1-1.59-.31-.46-.21-.82-.5-1.07-.87-.26-.37-.39-.81-.39-1.3,0-.76.3-1.37.89-1.83.59-.46,1.38-.7,2.36-.7s1.85.24,2.61.72v-1.37c0-.76-.21-1.33-.62-1.7-.41-.37-1.01-.56-1.78-.56-.38,0-.78.06-1.19.18-.41.12-.89.32-1.42.6l-.32-.65c.53-.27,1.03-.47,1.51-.59.48-.13.96-.19,1.44-.19.99,0,1.76.24,2.3.71.54.47.81,1.16.81,2.07v5.63h-.74v-.92c-.38.35-.8.61-1.27.8-.47.19-.98.29-1.54.29Zm-2.31-2.5c0,.54.22.98.67,1.32.45.35,1.01.52,1.69.52.59,0,1.11-.1,1.56-.31.45-.21.85-.5,1.21-.88v-1.71c-.37-.28-.77-.49-1.21-.62-.44-.13-.93-.2-1.49-.2-.73,0-1.31.17-1.76.52-.45.35-.67.8-.67,1.36Z"/>
          <path class="cls-4" d="m26.8,54.91c-.64,0-1.24-.11-1.82-.34-.58-.23-1.06-.56-1.45-1l.57-.47c.34.35.74.62,1.22.82.47.2.97.3,1.48.3.76,0,1.37-.16,1.83-.49s.7-.76.7-1.28c0-.39-.14-.71-.42-.97-.28-.26-.73-.42-1.36-.5l-1.36-.17c-.78-.09-1.38-.32-1.78-.69s-.61-.86-.61-1.47c0-.46.12-.86.37-1.21.25-.35.59-.62,1.03-.81s.95-.29,1.53-.29,1.09.08,1.61.25c.51.17,1.03.44,1.56.82l-.44.6c-.47-.34-.92-.58-1.35-.75-.43-.16-.89-.24-1.37-.24-.65,0-1.18.14-1.59.41-.41.27-.62.68-.62,1.21,0,.4.14.73.41.97.27.25.72.41,1.33.49l1.34.17c.83.1,1.44.34,1.84.72s.6.87.6,1.46c0,.47-.14.89-.42,1.27-.28.37-.66.67-1.15.88-.49.21-1.05.32-1.7.32Z"/>
          <path class="cls-4" d="m30.71,54.74v-11.73l.74-.18v4.83c.67-.88,1.58-1.32,2.73-1.32.63,0,1.18.13,1.65.39.47.26.84.63,1.11,1.11s.39,1.02.39,1.65v5.26h-.74v-5.06c0-.83-.23-1.48-.69-1.95-.46-.47-1.09-.71-1.89-.71-.56,0-1.06.13-1.51.39-.45.26-.8.64-1.06,1.13v6.2h-.74Z"/>
          <path class="cls-4" d="m43.93,54.84c-.46,0-.88-.08-1.28-.25-.4-.17-.75-.4-1.05-.69-.3-.3-.53-.64-.7-1.04s-.25-.82-.25-1.28.08-.88.25-1.28c.17-.39.4-.74.7-1.04.3-.3.65-.53,1.05-.69.4-.17.82-.25,1.28-.25.33,0,.65.04.95.12.3.08.59.2.85.35.26.15.49.34.7.56l-.46.49c-.25-.28-.55-.5-.91-.65-.36-.15-.74-.23-1.13-.23-.37,0-.71.07-1.02.2-.31.13-.59.32-.82.56-.23.24-.41.51-.54.83-.13.32-.19.66-.19,1.03s.06.71.19,1.03c.13.32.31.6.55.83.23.24.51.42.83.56.32.13.66.2,1.02.2.39,0,.76-.08,1.12-.23.35-.15.65-.37.89-.64l.45.47c-.21.22-.45.4-.71.56-.26.16-.54.28-.84.36-.3.08-.61.12-.93.12Z"/>
          <path class="cls-4" d="m46.89,54.74v-6.32l.67-.15v6.47h-.67Z"/>
          <path class="cls-4" d="m50.35,54.83c-.43,0-.82-.1-1.17-.31-.35-.21-.63-.49-.83-.84-.2-.35-.31-.75-.31-1.19s.1-.84.31-1.19c.2-.35.48-.64.83-.84.35-.21.74-.31,1.17-.31s.82.1,1.17.31c.35.21.63.49.83.84.2.35.31.75.31,1.19s-.1.84-.31,1.19c-.2.36-.48.64-.83.84s-.74.31-1.17.31Zm0-.6c.31,0,.59-.08.83-.23.25-.16.45-.37.6-.63.15-.26.22-.56.22-.88s-.07-.63-.22-.89c-.15-.26-.35-.47-.6-.63-.25-.16-.53-.23-.83-.23s-.59.08-.83.23c-.25.16-.45.37-.6.63-.15.26-.22.56-.22.89s.07.62.22.88.35.48.6.63.53.23.83.23Z"/>
          <path class="cls-4" d="m54.87,54.83c-.34,0-.65-.07-.91-.22-.26-.15-.47-.35-.62-.61-.15-.26-.22-.57-.22-.92v-2.86h.66v2.73c0,.4.11.72.34.95.23.23.54.35.92.35.27,0,.51-.06.73-.19.21-.12.39-.3.52-.52v-3.32h.67v4.52h-.67v-.52c-.35.41-.83.61-1.42.61Z"/>
          <path class="cls-4" d="m59.71,54.81c-.42,0-.8-.1-1.15-.31-.35-.21-.62-.49-.82-.84s-.3-.75-.3-1.19.1-.83.3-1.18c.2-.35.48-.63.82-.83.35-.21.73-.31,1.16-.31.26,0,.52.04.77.13.25.09.47.22.68.38v-2.24l.67-.15v6.47h-.66v-.48c-.4.37-.88.55-1.46.55Zm.06-.59c.28,0,.55-.06.79-.17.24-.11.44-.27.6-.46v-2.24c-.16-.19-.36-.34-.6-.46s-.51-.17-.79-.17c-.31,0-.6.08-.85.23s-.46.36-.6.62-.22.56-.22.89.07.63.22.89c.15.26.35.48.6.63.26.16.54.23.85.23Z"/>
        </g>
      </g>
      <path class="cls-4" d="m51.5,67.57H16.07c-8.86,0-16.07-7.21-16.07-16.07V16.07C0,7.21,7.21,0,16.07,0h35.43c8.86,0,16.07,7.21,16.07,16.07v35.43c0,8.86-7.21,16.07-16.07,16.07ZM16.07,1C7.76,1,1,7.76,1,16.07v35.43c0,8.31,6.76,15.07,15.07,15.07h35.43c8.31,0,15.07-6.76,15.07-15.07V16.07c0-8.31-6.76-15.07-15.07-15.07H16.07Z"/>
    </g>
  </g>
</svg>