<?xml version="1.0" encoding="utf-8"?>
<!-- Generator: Adobe Illustrator 27.6.1, SVG Export Plug-In . SVG Version: 6.00 Build 0)  -->
<svg version="1.1" id="Layer_2_00000088819986238425849770000012439923380850286754_"
	 xmlns="http://www.w3.org/2000/svg" xmlns:xlink="http://www.w3.org/1999/xlink" x="0px" y="0px" viewBox="0 0 67.6 67.6"
	 style="enable-background:new 0 0 67.6 67.6;" xml:space="preserve">
<style type="text/css">
	.st0{fill:url(#SVGID_1_);}
	.st1{fill:#FFFFFF;}
	.st2{fill:#27AAE1;}
	.st3{fill:#1C75BC;}
</style>
<g>
	<g>
		
			<linearGradient id="SVGID_1_" gradientUnits="userSpaceOnUse" x1="5.73" y1="40.31" x2="61.55" y2="40.31" gradientTransform="matrix(1 0 0 -1 0 70)">
			<stop  offset="0" style="stop-color:#6ACFF6"/>
			<stop  offset="0.71" style="stop-color:#008FD1"/>
			<stop  offset="1" style="stop-color:#00AEEF"/>
		</linearGradient>
		<path class="st0" d="M57.2,26.3h2.7V20h-3.6l0.6-7.4h-6.2l-0.4,4.9c-1-1.2-2.1-2.3-3.5-3.1l0.2-1.9h-6.2l0,0.2c0,0-0.1,0-0.1,0
			c-4.3,0-8,2.2-10.2,5.4c-0.4,0.6-1.2,1-2,0.8c-0.8-0.2-1.6-0.3-2.5-0.3c-3.8,0-7.1,2.4-8.4,5.7c-0.3,0.7-1,1.2-1.8,1.2
			c-5.6,0-10.2,4.5-10.2,10.2c0,1,0.2,2,0.4,2.9c0.2,0.8,0.9,1.3,1.8,1.3h30.6l-0.6,6.7h6.2l0.6-6.7h3.7l-0.6,6.7H54l0.6-6.7h4.8
			c0.8,0,1.5-0.5,1.7-1.3c0.3-1,0.5-2.1,0.5-3.3C61.6,31.8,59.8,28.5,57.2,26.3L57.2,26.3z"/>
		<g>
			<path class="st1" d="M59.7,26.5v-5.9h-3.6l0.6-7.4h-5.8l-0.6,7.4h-4.2l0.6-7.4H41l-0.6,7.4h-5.2v5.9h4.7l-0.6,7.2h-4.1v5.9h3.6
				L38.2,47h5.8l0.6-7.3h4.2L48.1,47h5.8l0.6-7.3h5.2v-5.9H55l0.6-7.2C55.6,26.5,59.7,26.5,59.7,26.5z M49.2,33.7H45l0.6-7.2h4.2
				C49.8,26.5,49.2,33.7,49.2,33.7z"/>
			<path class="st2" d="M54,47.2h-6.2l0.6-7.3h-3.7l-0.6,7.3h-6.2l0.6-7.3H35v-6.3h4.1l0.6-6.8H35v-6.3h5.2l0.6-7.4H47l-0.6,7.4h3.7
				l0.6-7.4h6.2l-0.6,7.4h3.6v6.3h-4.1l-0.6,6.8h4.7v6.3h-5.2L54,47.2z M48.3,46.8h5.3l0.6-7.3h5.2V34h-4.7l0.7-7.6h4.1v-5.5h-3.6
				l0.6-7.4h-5.3l-0.6,7.4h-4.6l0.6-7.4h-5.3l-0.6,7.4h-5.2v5.5h4.7L39.5,34h-4.1v5.5H39l-0.6,7.3h5.3l0.6-7.3h4.6
				C48.9,39.4,48.3,46.8,48.3,46.8z M49.4,34h-4.6l0.7-7.6h4.6L49.4,34z M45.3,33.5H49l0.6-6.8h-3.7L45.3,33.5z"/>
		</g>
	</g>
	<g>
		<path class="st3" d="M6.6,54.7V43h0.8v5.5h7.5V43h0.8v11.7h-0.8v-5.5H7.3v5.5C7.3,54.7,6.6,54.7,6.6,54.7z"/>
		<path class="st3" d="M19.5,54.9c-0.6,0-1.1-0.1-1.6-0.3c-0.5-0.2-0.8-0.5-1.1-0.9c-0.3-0.4-0.4-0.8-0.4-1.3c0-0.8,0.3-1.4,0.9-1.8
			c0.6-0.5,1.4-0.7,2.4-0.7s1.9,0.2,2.6,0.7v-1.4c0-0.8-0.2-1.3-0.6-1.7c-0.4-0.4-1-0.6-1.8-0.6c-0.4,0-0.8,0.1-1.2,0.2
			s-0.9,0.3-1.4,0.6L17,47.1c0.5-0.3,1-0.5,1.5-0.6c0.5-0.1,1-0.2,1.4-0.2c1,0,1.8,0.2,2.3,0.7c0.5,0.5,0.8,1.2,0.8,2.1v5.6h-0.7
			v-0.9c-0.4,0.3-0.8,0.6-1.3,0.8C20.6,54.8,20,54.9,19.5,54.9L19.5,54.9z M17.2,52.4c0,0.5,0.2,1,0.7,1.3c0.5,0.3,1,0.5,1.7,0.5
			c0.6,0,1.1-0.1,1.6-0.3c0.5-0.2,0.9-0.5,1.2-0.9v-1.7c-0.4-0.3-0.8-0.5-1.2-0.6c-0.4-0.1-0.9-0.2-1.5-0.2c-0.7,0-1.3,0.2-1.8,0.5
			C17.4,51.4,17.2,51.8,17.2,52.4z"/>
		<path class="st3" d="M26.8,54.9c-0.6,0-1.2-0.1-1.8-0.3s-1.1-0.6-1.5-1l0.6-0.5c0.3,0.3,0.7,0.6,1.2,0.8c0.5,0.2,1,0.3,1.5,0.3
			c0.8,0,1.4-0.2,1.8-0.5s0.7-0.8,0.7-1.3c0-0.4-0.1-0.7-0.4-1c-0.3-0.3-0.7-0.4-1.4-0.5l-1.4-0.2c-0.8-0.1-1.4-0.3-1.8-0.7
			s-0.6-0.9-0.6-1.5c0-0.5,0.1-0.9,0.4-1.2s0.6-0.6,1-0.8s1-0.3,1.5-0.3s1.1,0.1,1.6,0.2c0.5,0.2,1,0.4,1.6,0.8L29.5,48
			c-0.5-0.3-0.9-0.6-1.4-0.8c-0.4-0.2-0.9-0.2-1.4-0.2c-0.6,0-1.2,0.1-1.6,0.4s-0.6,0.7-0.6,1.2c0,0.4,0.1,0.7,0.4,1
			c0.3,0.2,0.7,0.4,1.3,0.5l1.3,0.2c0.8,0.1,1.4,0.3,1.8,0.7s0.6,0.9,0.6,1.5c0,0.5-0.1,0.9-0.4,1.3c-0.3,0.4-0.7,0.7-1.1,0.9
			C28,54.8,27.4,54.9,26.8,54.9L26.8,54.9z"/>
		<path class="st3" d="M30.7,54.7V43l0.7-0.2v4.8c0.7-0.9,1.6-1.3,2.7-1.3c0.6,0,1.2,0.1,1.7,0.4s0.8,0.6,1.1,1.1s0.4,1,0.4,1.7v5.3
			h-0.7v-5.1c0-0.8-0.2-1.5-0.7-2S34.8,47,34,47c-0.6,0-1.1,0.1-1.5,0.4c-0.5,0.3-0.8,0.6-1.1,1.1v6.2L30.7,54.7L30.7,54.7z"/>
		<path class="st3" d="M43.9,54.8c-0.5,0-0.9-0.1-1.3-0.2c-0.4-0.2-0.8-0.4-1-0.7c-0.3-0.3-0.5-0.6-0.7-1s-0.2-0.8-0.2-1.3
			s0.1-0.9,0.2-1.3c0.2-0.4,0.4-0.7,0.7-1s0.7-0.5,1-0.7c0.4-0.2,0.8-0.2,1.3-0.2c0.3,0,0.7,0,1,0.1c0.3,0.1,0.6,0.2,0.8,0.3
			c0.3,0.2,0.5,0.3,0.7,0.6L46,49.8c-0.2-0.3-0.5-0.5-0.9-0.7S44.3,49,43.9,49c-0.4,0-0.7,0.1-1,0.2s-0.6,0.3-0.8,0.6
			s-0.4,0.5-0.5,0.8c-0.1,0.3-0.2,0.7-0.2,1s0.1,0.7,0.2,1c0.1,0.3,0.3,0.6,0.5,0.8c0.2,0.2,0.5,0.4,0.8,0.6c0.3,0.1,0.7,0.2,1,0.2
			c0.4,0,0.8-0.1,1.1-0.2c0.3-0.2,0.7-0.4,0.9-0.6l0.5,0.5c-0.2,0.2-0.5,0.4-0.7,0.6s-0.5,0.3-0.8,0.4S44.2,54.8,43.9,54.8
			L43.9,54.8z"/>
		<path class="st3" d="M46.9,54.7v-6.3l0.7-0.2v6.5H46.9z"/>
		<path class="st3" d="M50.3,54.8c-0.4,0-0.8-0.1-1.2-0.3c-0.3-0.2-0.6-0.5-0.8-0.8S48,52.9,48,52.5s0.1-0.8,0.3-1.2
			c0.2-0.3,0.5-0.6,0.8-0.8c0.3-0.2,0.7-0.3,1.2-0.3s0.8,0.1,1.2,0.3c0.3,0.2,0.6,0.5,0.8,0.8s0.3,0.8,0.3,1.2s-0.1,0.8-0.3,1.2
			c-0.2,0.4-0.5,0.6-0.8,0.8S50.8,54.8,50.3,54.8z M50.3,54.2c0.3,0,0.6-0.1,0.8-0.2c0.2-0.2,0.5-0.4,0.6-0.6
			c0.2-0.3,0.2-0.6,0.2-0.9s-0.1-0.6-0.2-0.9s-0.3-0.5-0.6-0.6s-0.5-0.2-0.8-0.2s-0.6,0.1-0.8,0.2c-0.2,0.2-0.5,0.4-0.6,0.6
			c-0.2,0.3-0.2,0.6-0.2,0.9s0.1,0.6,0.2,0.9s0.3,0.5,0.6,0.6S50,54.2,50.3,54.2z"/>
		<path class="st3" d="M54.9,54.8c-0.3,0-0.7-0.1-0.9-0.2s-0.5-0.3-0.6-0.6c-0.2-0.3-0.2-0.6-0.2-0.9v-2.9h0.7V53
			c0,0.4,0.1,0.7,0.3,1s0.5,0.3,0.9,0.3c0.3,0,0.5-0.1,0.7-0.2c0.2-0.1,0.4-0.3,0.5-0.5v-3.3H57v4.5h-0.7v-0.5
			C55.9,54.6,55.5,54.8,54.9,54.8z"/>
		<path class="st3" d="M59.7,54.8c-0.4,0-0.8-0.1-1.2-0.3c-0.3-0.2-0.6-0.5-0.8-0.8s-0.3-0.8-0.3-1.2s0.1-0.8,0.3-1.2
			s0.5-0.6,0.8-0.8c0.3-0.2,0.7-0.3,1.2-0.3c0.3,0,0.5,0,0.8,0.1s0.5,0.2,0.7,0.4v-2.2l0.7-0.2v6.5h-0.7v-0.5
			C60.8,54.6,60.3,54.8,59.7,54.8L59.7,54.8z M59.8,54.2c0.3,0,0.5-0.1,0.8-0.2c0.2-0.1,0.4-0.3,0.6-0.5v-2.2
			c-0.2-0.2-0.4-0.3-0.6-0.5s-0.5-0.2-0.8-0.2c-0.3,0-0.6,0.1-0.8,0.2s-0.5,0.4-0.6,0.6s-0.2,0.6-0.2,0.9s0.1,0.6,0.2,0.9
			s0.3,0.5,0.6,0.6C59.2,54.1,59.5,54.2,59.8,54.2L59.8,54.2z"/>
	</g>
</g>
</svg>
