<?xml version="1.0" encoding="utf-8"?>
<!-- Generator: Adobe Illustrator 27.6.1, SVG Export Plug-In . SVG Version: 6.00 Build 0)  -->
<svg version="1.1" id="Layer_2_00000088819986238425849770000012439923380850286754_"
	 xmlns="http://www.w3.org/2000/svg" xmlns:xlink="http://www.w3.org/1999/xlink" x="0px" y="0px" viewBox="0 0 67.6 67.6"
	 style="enable-background:new 0 0 67.6 67.6;" xml:space="preserve">
<style type="text/css">
	.st0{fill:url(#SVGID_1_);}
	.st1{fill:#FFFFFF;}
	.st2{fill:#27AAE1;}
</style>
<g>
	
		<linearGradient id="SVGID_1_" gradientUnits="userSpaceOnUse" x1="14.9" y1="756.6" x2="53.5" y2="756.6" gradientTransform="matrix(1 0 0 1 0 -722)">
		<stop  offset="0" style="stop-color:#6ACFF6"/>
		<stop  offset="0.71" style="stop-color:#008FD1"/>
		<stop  offset="1" style="stop-color:#00AEEF"/>
	</linearGradient>
	<path class="st0" d="M50.5,32.3h1.9v-4.4h-2.5l0.4-5.1H46l-0.3,3.4c-0.7-0.9-1.5-1.6-2.4-2.1l0.1-1.3h-4.3V23H39
		c-3,0-5.5,1.5-7,3.8c-0.3,0.4-0.8,0.7-1.4,0.5c-0.5-0.2-1.1-0.2-1.7-0.2c-2.6,0-4.9,1.6-5.8,3.9c-0.2,0.5-0.7,0.9-1.2,0.9
		c-3.9,0-7,3.1-7,7c0,0.7,0.1,1.4,0.3,2c0.2,0.5,0.6,0.9,1.2,0.9h21.1l-0.4,4.6h4.3l0.4-4.6h2.6L44,46.4h4.3l0.4-4.6H52
		c0.6,0,1.1-0.4,1.2-0.9c0.2-0.7,0.3-1.5,0.3-2.3C53.5,36.1,52.3,33.8,50.5,32.3L50.5,32.3z"/>
	<g>
		<path class="st1" d="M52.2,32.5v-4.1h-2.5l0.4-5.1h-4l-0.4,5.1h-2.9l0.4-5.1h-4l-0.4,5.1h-3.6v4.1h3.3l-0.4,5h-2.8v4.1h2.5
			l-0.4,5.1h4l0.4-5.1h2.9l-0.4,5.1h4l0.4-5.1h3.6v-4.1H49l0.4-5H52.2z M45,37.4h-2.9l0.4-5h2.9C45.4,32.5,45,37.4,45,37.4z"/>
		<path class="st2" d="M48.3,46.7H44l0.4-5.1h-2.6l-0.4,5.1h-4.3l0.4-5.1H35v-4.4h3l0.4-4.7h-3.2v-4.4h3.6l0.4-5.1h4.3L43,28.2h2.6
			l0.4-5.1h4.3l-0.4,5.1h2.5v4.4h-2.8l-0.4,4.7h3.2v4.4h-3.6L48.3,46.7z M44.4,46.4h3.7l0.4-5.1h3.6v-3.8h-3.3l0.4-5.3H52v-3.8h-2.5
			l0.4-5.1h-3.7l-0.4,5.1h-3.2l0.4-5.1h-3.7L39,28.5h-3.6v3.8h3.3l-0.4,5.3h-2.8v3.8H38l-0.4,5.1h3.7l0.4-5.1h3.2
			C44.8,41.4,44.4,46.4,44.4,46.4z M45.1,37.6h-3.2l0.4-5.3h3.2L45.1,37.6z M42.3,37.3h2.6l0.4-4.7h-2.6L42.3,37.3z"/>
	</g>
</g>
</svg>
